<svg width="1200" height="630" viewBox="0 0 1200 630" fill="none" xmlns="http://www.w3.org/2000/svg">
  <rect width="1200" height="630" fill="#f5efe6"/>
  <path d="M0 0H1200V630H0V0Z" fill="url(#grain)"/>
  <rect x="70" y="70" width="1060" height="490" rx="44" fill="#2e1245"/>
  <rect x="96" y="96" width="1008" height="438" rx="32" stroke="#eeba0b" stroke-width="3"/>
  <circle cx="965" cy="166" r="94" fill="#5a247a" opacity="0.72"/>
  <circle cx="1050" cy="482" r="128" fill="#5a247a" opacity="0.52"/>
  <path d="M168 170H244V348C244 382 266 404 300 404H470V468H300C221 468 168 415 168 340V170Z" fill="#fcf7f0"/>
  <path d="M430 170C380 170 340 210 340 260H408C412 244 427 232 445 232C469 232 488 251 488 275C488 299 469 318 445 318H340V382H445C506 382 556 332 556 276C556 216 506 170 445 170H430Z" fill="#f4e409"/>
  <text x="636" y="238" fill="#f4e409" font-size="30" font-family="Georgia, serif" letter-spacing="7">DE-NEST BREAD</text>
  <text x="636" y="320" fill="#fcf7f0" font-size="64" font-family="Georgia, serif" font-weight="700">Nest Foods Limited</text>
  <text x="636" y="376" fill="#f5efe6" font-size="28" font-family="Georgia, serif">Baking memories, one slice at a time.</text>
  <text x="636" y="430" fill="#eeba0b" font-size="24" font-family="Georgia, serif">Every loaf is a testament of our commitment to quality.</text>
  <defs>
    <pattern id="grain" patternUnits="userSpaceOnUse" width="120" height="120">
      <path d="M24 76C42 64 52 66 68 78C84 90 96 86 108 72" stroke="#eeba0b" stroke-opacity="0.12" stroke-width="2"/>
      <path d="M-4 36C16 24 34 24 52 38C70 52 92 50 124 30" stroke="#5a247a" stroke-opacity="0.08" stroke-width="2"/>
    </pattern>
  </defs>
</svg>
