<svg width="160" height="160" viewBox="0 0 160 160" fill="none" xmlns="http://www.w3.org/2000/svg">
  <rect width="160" height="160" rx="36" fill="#2e1245"/>
  <rect x="14" y="14" width="132" height="132" rx="28" stroke="#eeba0b" stroke-width="2"/>
  <path d="M49 45H65V92C65 99 69.7 104 76.5 104H111V118H76.5C60.9 118 49 106.1 49 90.5V45Z" fill="#FCF7F0"/>
  <path d="M102 45C93.6 45 87.1 51.7 86.9 60.1H100.8C101.3 58.6 102.8 57.4 104.7 57.4C107.2 57.4 109.2 59.4 109.2 61.9C109.2 64.4 107.2 66.4 104.7 66.4H86.9V79.4H104.7C114.1 79.4 121.8 71.7 121.8 62.3C121.8 52.8 114.1 45 104.7 45H102Z" fill="#f4e409"/>
  <text x="80" y="138" fill="#fcf7f0" font-size="9" text-anchor="middle" font-family="Georgia, serif" letter-spacing="1.1">DE-NEST BREAD</text>
</svg>
